<svg width="964" height="281" viewBox="0 0 964 281" fill="none" xmlns="http://www.w3.org/2000/svg">
<path d="M316.05 68.2727H333.379V118.557C333.356 123.268 332.231 127.387 330.006 130.915C327.78 134.419 324.703 137.141 320.773 139.082C316.866 141.024 312.345 141.994 307.207 141.994C302.662 141.994 298.531 141.201 294.814 139.615C291.121 138.029 288.173 135.567 285.972 132.229C283.794 128.891 282.716 124.617 282.74 119.409H300.247C300.318 121.279 300.673 122.877 301.312 124.203C301.975 125.505 302.887 126.488 304.047 127.151C305.207 127.813 306.592 128.145 308.202 128.145C309.883 128.145 311.303 127.79 312.463 127.08C313.623 126.346 314.499 125.268 315.091 123.848C315.706 122.428 316.026 120.664 316.05 118.557V68.2727ZM359.791 141.923C356.311 141.923 353.221 141.343 350.522 140.183C347.847 139 345.728 137.224 344.166 134.857C342.627 132.465 341.858 129.471 341.858 125.872C341.858 122.842 342.39 120.285 343.456 118.202C344.521 116.118 345.989 114.426 347.859 113.124C349.729 111.821 351.884 110.839 354.322 110.176C356.761 109.49 359.365 109.028 362.135 108.791C365.236 108.507 367.734 108.211 369.627 107.903C371.521 107.572 372.895 107.11 373.747 106.518C374.623 105.903 375.061 105.039 375.061 103.926V103.749C375.061 101.926 374.433 100.517 373.179 99.5227C371.924 98.5284 370.231 98.0312 368.1 98.0312C365.804 98.0312 363.958 98.5284 362.561 99.5227C361.164 100.517 360.276 101.89 359.897 103.642L343.882 103.074C344.355 99.7595 345.574 96.8002 347.539 94.196C349.528 91.5682 352.251 89.5085 355.707 88.017C359.187 86.5019 363.366 85.7443 368.243 85.7443C371.723 85.7443 374.931 86.1586 377.866 86.9872C380.802 87.7921 383.359 88.9759 385.537 90.5384C387.715 92.0772 389.395 93.9711 390.579 96.2202C391.787 98.4692 392.39 101.038 392.39 103.926V141H376.055V133.401H375.629C374.658 135.247 373.415 136.81 371.9 138.088C370.409 139.366 368.645 140.325 366.609 140.964C364.597 141.604 362.324 141.923 359.791 141.923ZM365.153 130.56C367.023 130.56 368.704 130.181 370.196 129.423C371.711 128.666 372.918 127.624 373.818 126.298C374.717 124.949 375.167 123.386 375.167 121.611V116.426C374.67 116.687 374.066 116.923 373.356 117.136C372.67 117.349 371.912 117.551 371.083 117.74C370.255 117.929 369.403 118.095 368.527 118.237C367.651 118.379 366.81 118.509 366.005 118.628C364.372 118.888 362.975 119.291 361.815 119.835C360.679 120.38 359.803 121.09 359.187 121.966C358.595 122.818 358.299 123.836 358.299 125.02C358.299 126.819 358.939 128.192 360.217 129.139C361.519 130.086 363.164 130.56 365.153 130.56ZM403.008 141V86.4545H419.876V96.3977H420.444C421.439 92.7992 423.06 90.1241 425.309 88.3722C427.558 86.5966 430.174 85.7088 433.157 85.7088C433.962 85.7088 434.791 85.768 435.643 85.8864C436.495 85.9811 437.288 86.1349 438.022 86.348V101.44C437.194 101.156 436.105 100.931 434.755 100.766C433.43 100.6 432.246 100.517 431.204 100.517C429.145 100.517 427.286 100.979 425.629 101.902C423.995 102.802 422.705 104.068 421.758 105.702C420.835 107.312 420.373 109.205 420.373 111.384V141H403.008ZM462.188 141.781C458.163 141.781 454.506 140.74 451.215 138.656C447.924 136.573 445.296 133.448 443.331 129.281C441.366 125.115 440.384 119.942 440.384 113.763C440.384 107.347 441.402 102.068 443.438 97.9247C445.474 93.7817 448.137 90.7159 451.428 88.7273C454.742 86.7386 458.305 85.7443 462.117 85.7443C464.981 85.7443 467.432 86.2415 469.468 87.2358C471.504 88.2064 473.185 89.4612 474.51 91C475.836 92.5388 476.842 94.1368 477.529 95.794H477.884V68.2727H495.249V141H478.061V132.158H477.529C476.795 133.839 475.753 135.413 474.404 136.881C473.054 138.348 471.362 139.532 469.326 140.432C467.313 141.331 464.934 141.781 462.188 141.781ZM468.225 128.251C470.332 128.251 472.131 127.66 473.623 126.476C475.114 125.268 476.262 123.576 477.067 121.398C477.872 119.22 478.275 116.663 478.275 113.727C478.275 110.744 477.872 108.176 477.067 106.021C476.286 103.867 475.138 102.21 473.623 101.05C472.131 99.8897 470.332 99.3097 468.225 99.3097C466.07 99.3097 464.248 99.9015 462.756 101.085C461.265 102.269 460.128 103.938 459.347 106.092C458.589 108.247 458.211 110.792 458.211 113.727C458.211 116.663 458.601 119.22 459.382 121.398C460.164 123.576 461.288 125.268 462.756 126.476C464.248 127.66 466.07 128.251 468.225 128.251ZM506.231 141V86.4545H523.596V141H506.231ZM514.931 80.098C512.493 80.098 510.397 79.2931 508.646 77.6832C506.894 76.0497 506.018 74.0848 506.018 71.7884C506.018 69.5156 506.894 67.5743 508.646 65.9645C510.397 64.331 512.493 63.5142 514.931 63.5142C517.393 63.5142 519.488 64.331 521.217 65.9645C522.969 67.5743 523.844 69.5156 523.844 71.7884C523.844 74.0848 522.969 76.0497 521.217 77.6832C519.488 79.2931 517.393 80.098 514.931 80.098ZM560.146 142.03C554.44 142.03 549.516 140.905 545.373 138.656C541.254 136.384 538.082 133.152 535.856 128.962C533.654 124.748 532.554 119.741 532.554 113.94C532.554 108.306 533.666 103.382 535.892 99.1676C538.117 94.9299 541.254 91.6392 545.302 89.2955C549.35 86.928 554.121 85.7443 559.613 85.7443C563.496 85.7443 567.047 86.348 570.267 87.5554C573.486 88.7628 576.268 90.5502 578.612 92.9176C580.956 95.285 582.779 98.2088 584.081 101.689C585.383 105.145 586.034 109.111 586.034 113.585V117.918H538.626V107.832H569.876C569.852 105.986 569.414 104.34 568.562 102.896C567.71 101.452 566.538 100.328 565.047 99.5227C563.579 98.6941 561.886 98.2798 559.968 98.2798C558.027 98.2798 556.287 98.7178 554.748 99.5938C553.209 100.446 551.99 101.618 551.091 103.109C550.191 104.577 549.717 106.246 549.67 108.116V118.379C549.67 120.605 550.108 122.558 550.984 124.239C551.86 125.896 553.103 127.186 554.713 128.109C556.323 129.033 558.24 129.494 560.466 129.494C562.004 129.494 563.401 129.281 564.656 128.855C565.911 128.429 566.988 127.802 567.887 126.973C568.787 126.144 569.462 125.126 569.912 123.919L585.856 124.381C585.193 127.955 583.737 131.069 581.488 133.72C579.263 136.348 576.339 138.396 572.717 139.864C569.095 141.308 564.904 142.03 560.146 142.03ZM612.268 68.2727V141H594.903V68.2727H612.268ZM710.821 94.6222H693.065C692.828 92.7992 692.343 91.1539 691.609 89.6861C690.875 88.2183 689.904 86.9635 688.697 85.9219C687.49 84.8802 686.057 84.0871 684.4 83.5426C682.767 82.9744 680.956 82.6903 678.967 82.6903C675.44 82.6903 672.397 83.5544 669.841 85.2827C667.307 87.0109 665.354 89.5085 663.981 92.7756C662.632 96.0426 661.957 99.9962 661.957 104.636C661.957 109.466 662.644 113.514 664.017 116.781C665.413 120.025 667.367 122.475 669.876 124.132C672.409 125.766 675.404 126.582 678.86 126.582C680.802 126.582 682.565 126.334 684.152 125.837C685.761 125.339 687.17 124.617 688.377 123.67C689.609 122.7 690.615 121.528 691.396 120.155C692.201 118.758 692.757 117.184 693.065 115.432L710.821 115.538C710.513 118.758 709.578 121.93 708.015 125.055C706.476 128.18 704.358 131.033 701.659 133.614C698.96 136.17 695.669 138.206 691.787 139.722C687.928 141.237 683.501 141.994 678.505 141.994C671.924 141.994 666.029 140.55 660.821 137.662C655.636 134.75 651.54 130.512 648.534 124.949C645.527 119.385 644.024 112.615 644.024 104.636C644.024 96.6345 645.551 89.8518 648.605 84.2884C651.659 78.7249 655.79 74.4991 660.998 71.6108C666.207 68.7225 672.042 67.2784 678.505 67.2784C682.909 67.2784 686.981 67.8939 690.721 69.125C694.462 70.3324 697.752 72.108 700.593 74.4517C703.434 76.7718 705.743 79.6245 707.518 83.0099C709.294 86.3954 710.395 90.2661 710.821 94.6222ZM736.256 141.923C732.776 141.923 729.686 141.343 726.987 140.183C724.312 139 722.193 137.224 720.631 134.857C719.092 132.465 718.322 129.471 718.322 125.872C718.322 122.842 718.855 120.285 719.92 118.202C720.986 116.118 722.454 114.426 724.324 113.124C726.194 111.821 728.348 110.839 730.787 110.176C733.225 109.49 735.83 109.028 738.599 108.791C741.701 108.507 744.198 108.211 746.092 107.903C747.986 107.572 749.359 107.11 750.212 106.518C751.088 105.903 751.526 105.039 751.526 103.926V103.749C751.526 101.926 750.898 100.517 749.643 99.5227C748.389 98.5284 746.696 98.0312 744.565 98.0312C742.269 98.0312 740.422 98.5284 739.026 99.5227C737.629 100.517 736.741 101.89 736.362 103.642L720.347 103.074C720.82 99.7595 722.039 96.8002 724.004 94.196C725.993 91.5682 728.715 89.5085 732.172 88.017C735.652 86.5019 739.83 85.7443 744.707 85.7443C748.188 85.7443 751.395 86.1586 754.331 86.9872C757.267 87.7921 759.823 88.9759 762.001 90.5384C764.179 92.0772 765.86 93.9711 767.044 96.2202C768.251 98.4692 768.855 101.038 768.855 103.926V141H752.52V133.401H752.094C751.123 135.247 749.88 136.81 748.365 138.088C746.874 139.366 745.11 140.325 743.074 140.964C741.062 141.604 738.789 141.923 736.256 141.923ZM741.618 130.56C743.488 130.56 745.169 130.181 746.661 129.423C748.176 128.666 749.383 127.624 750.283 126.298C751.182 124.949 751.632 123.386 751.632 121.611V116.426C751.135 116.687 750.531 116.923 749.821 117.136C749.134 117.349 748.377 117.551 747.548 117.74C746.72 117.929 745.867 118.095 744.991 118.237C744.116 118.379 743.275 118.509 742.47 118.628C740.837 118.888 739.44 119.291 738.28 119.835C737.143 120.38 736.268 121.09 735.652 121.966C735.06 122.818 734.764 123.836 734.764 125.02C734.764 126.819 735.403 128.192 736.682 129.139C737.984 130.086 739.629 130.56 741.618 130.56ZM779.473 141V86.4545H796.341V96.3977H796.909C797.903 92.7992 799.525 90.1241 801.774 88.3722C804.023 86.5966 806.639 85.7088 809.622 85.7088C810.427 85.7088 811.256 85.768 812.108 85.8864C812.96 85.9811 813.753 86.1349 814.487 86.348V101.44C813.659 101.156 812.57 100.931 811.22 100.766C809.894 100.6 808.711 100.517 807.669 100.517C805.609 100.517 803.751 100.979 802.094 101.902C800.46 102.802 799.17 104.068 798.223 105.702C797.3 107.312 796.838 109.205 796.838 111.384V141H779.473ZM838.928 68.2727V141H821.563V68.2727H838.928ZM875.442 142.03C869.713 142.03 864.789 140.858 860.67 138.514C856.574 136.147 853.414 132.856 851.188 128.642C848.987 124.404 847.886 119.492 847.886 113.905C847.886 108.294 848.987 103.382 851.188 99.1676C853.414 94.9299 856.574 91.6392 860.67 89.2955C864.789 86.928 869.713 85.7443 875.442 85.7443C881.172 85.7443 886.084 86.928 890.18 89.2955C894.299 91.6392 897.46 94.9299 899.661 99.1676C901.887 103.382 902.999 108.294 902.999 113.905C902.999 119.492 901.887 124.404 899.661 128.642C897.46 132.856 894.299 136.147 890.18 138.514C886.084 140.858 881.172 142.03 875.442 142.03ZM875.549 128.926C877.632 128.926 879.396 128.287 880.84 127.009C882.284 125.73 883.385 123.955 884.143 121.682C884.924 119.409 885.315 116.781 885.315 113.798C885.315 110.768 884.924 108.116 884.143 105.844C883.385 103.571 882.284 101.795 880.84 100.517C879.396 99.2386 877.632 98.5994 875.549 98.5994C873.395 98.5994 871.572 99.2386 870.08 100.517C868.612 101.795 867.488 103.571 866.707 105.844C865.949 108.116 865.57 110.768 865.57 113.798C865.57 116.781 865.949 119.409 866.707 121.682C867.488 123.955 868.612 125.73 870.08 127.009C871.572 128.287 873.395 128.926 875.549 128.926ZM959.516 103.109L943.571 103.536C943.405 102.399 942.955 101.393 942.222 100.517C941.488 99.6174 940.529 98.919 939.345 98.4219C938.185 97.901 936.836 97.6406 935.297 97.6406C933.285 97.6406 931.568 98.0431 930.148 98.848C928.751 99.6529 928.064 100.742 928.088 102.115C928.064 103.18 928.491 104.104 929.366 104.885C930.266 105.666 931.864 106.294 934.161 106.767L944.672 108.756C950.117 109.797 954.165 111.526 956.817 113.94C959.492 116.355 960.841 119.551 960.865 123.528C960.841 127.269 959.729 130.524 957.527 133.294C955.349 136.064 952.366 138.218 948.578 139.757C944.79 141.272 940.458 142.03 935.581 142.03C927.792 142.03 921.649 140.432 917.151 137.236C912.676 134.016 910.119 129.707 909.48 124.31L926.632 123.884C927.011 125.872 927.993 127.387 929.58 128.429C931.166 129.471 933.19 129.991 935.652 129.991C937.877 129.991 939.688 129.577 941.085 128.749C942.482 127.92 943.192 126.819 943.216 125.446C943.192 124.215 942.648 123.232 941.582 122.499C940.517 121.741 938.848 121.149 936.575 120.723L927.058 118.912C921.589 117.918 917.518 116.083 914.842 113.408C912.167 110.709 910.841 107.276 910.865 103.109C910.841 99.4635 911.812 96.3504 913.777 93.7699C915.742 91.1657 918.536 89.1771 922.158 87.804C925.78 86.4309 930.053 85.7443 934.977 85.7443C942.364 85.7443 948.188 87.295 952.449 90.3963C956.71 93.474 959.066 97.7116 959.516 103.109Z" fill="white"/>
<path d="M296.136 211H284.835V176.091H296.494C299.915 176.091 302.852 176.79 305.307 178.188C307.761 179.574 309.642 181.568 310.949 184.17C312.267 186.761 312.926 189.869 312.926 193.494C312.926 197.131 312.261 200.256 310.932 202.869C309.614 205.483 307.705 207.494 305.205 208.903C302.705 210.301 299.682 211 296.136 211ZM290.102 206.398H295.847C298.506 206.398 300.716 205.898 302.477 204.898C304.239 203.886 305.557 202.426 306.432 200.517C307.307 198.597 307.744 196.256 307.744 193.494C307.744 190.756 307.307 188.432 306.432 186.523C305.568 184.614 304.278 183.165 302.562 182.176C300.847 181.187 298.716 180.693 296.17 180.693H290.102V206.398ZM330.351 211.528C327.771 211.528 325.55 210.977 323.686 209.875C321.834 208.761 320.402 207.199 319.391 205.188C318.391 203.165 317.891 200.795 317.891 198.08C317.891 195.398 318.391 193.034 319.391 190.989C320.402 188.943 321.811 187.347 323.618 186.199C325.436 185.051 327.561 184.477 329.993 184.477C331.47 184.477 332.902 184.722 334.288 185.21C335.675 185.699 336.919 186.466 338.021 187.511C339.124 188.557 339.993 189.915 340.629 191.585C341.266 193.244 341.584 195.261 341.584 197.636V199.443H320.771V195.625H336.589C336.589 194.284 336.317 193.097 335.771 192.062C335.226 191.017 334.459 190.193 333.47 189.591C332.493 188.989 331.345 188.688 330.027 188.688C328.595 188.688 327.345 189.04 326.277 189.744C325.22 190.437 324.402 191.347 323.822 192.472C323.254 193.585 322.97 194.795 322.97 196.102V199.085C322.97 200.835 323.277 202.324 323.891 203.551C324.516 204.778 325.385 205.716 326.499 206.364C327.612 207 328.913 207.318 330.402 207.318C331.368 207.318 332.249 207.182 333.044 206.909C333.839 206.625 334.527 206.205 335.107 205.648C335.686 205.091 336.129 204.403 336.436 203.585L341.26 204.455C340.874 205.875 340.18 207.119 339.18 208.188C338.192 209.244 336.947 210.068 335.447 210.659C333.959 211.239 332.26 211.528 330.351 211.528ZM366.858 191.21L362.239 192.028C362.045 191.437 361.739 190.875 361.318 190.341C360.909 189.807 360.352 189.369 359.648 189.028C358.943 188.687 358.063 188.517 357.006 188.517C355.563 188.517 354.358 188.841 353.392 189.489C352.426 190.125 351.943 190.949 351.943 191.96C351.943 192.835 352.267 193.54 352.915 194.074C353.563 194.608 354.608 195.045 356.051 195.386L360.21 196.341C362.619 196.898 364.415 197.756 365.597 198.915C366.778 200.074 367.369 201.58 367.369 203.432C367.369 205 366.915 206.398 366.006 207.625C365.108 208.841 363.852 209.795 362.239 210.489C360.636 211.182 358.778 211.528 356.665 211.528C353.733 211.528 351.341 210.903 349.489 209.653C347.636 208.392 346.5 206.602 346.08 204.284L351.006 203.534C351.313 204.818 351.943 205.79 352.898 206.449C353.852 207.097 355.097 207.42 356.631 207.42C358.301 207.42 359.636 207.074 360.636 206.381C361.636 205.676 362.136 204.818 362.136 203.807C362.136 202.989 361.83 202.301 361.216 201.744C360.614 201.187 359.688 200.767 358.438 200.483L354.006 199.511C351.563 198.955 349.756 198.068 348.585 196.852C347.426 195.636 346.847 194.097 346.847 192.233C346.847 190.687 347.278 189.335 348.142 188.176C349.006 187.017 350.199 186.114 351.722 185.466C353.244 184.807 354.989 184.477 356.955 184.477C359.784 184.477 362.011 185.091 363.636 186.318C365.261 187.534 366.335 189.165 366.858 191.21ZM384.257 211.528C381.678 211.528 379.456 210.977 377.592 209.875C375.74 208.761 374.308 207.199 373.297 205.188C372.297 203.165 371.797 200.795 371.797 198.08C371.797 195.398 372.297 193.034 373.297 190.989C374.308 188.943 375.717 187.347 377.524 186.199C379.342 185.051 381.467 184.477 383.899 184.477C385.376 184.477 386.808 184.722 388.195 185.21C389.581 185.699 390.825 186.466 391.928 187.511C393.03 188.557 393.899 189.915 394.536 191.585C395.172 193.244 395.49 195.261 395.49 197.636V199.443H374.678V195.625H390.496C390.496 194.284 390.223 193.097 389.678 192.062C389.132 191.017 388.365 190.193 387.376 189.591C386.399 188.989 385.251 188.688 383.933 188.688C382.501 188.688 381.251 189.04 380.183 189.744C379.126 190.437 378.308 191.347 377.729 192.472C377.161 193.585 376.876 194.795 376.876 196.102V199.085C376.876 200.835 377.183 202.324 377.797 203.551C378.422 204.778 379.291 205.716 380.405 206.364C381.518 207 382.82 207.318 384.308 207.318C385.274 207.318 386.155 207.182 386.95 206.909C387.746 206.625 388.433 206.205 389.013 205.648C389.592 205.091 390.036 204.403 390.342 203.585L395.166 204.455C394.78 205.875 394.087 207.119 393.087 208.188C392.098 209.244 390.854 210.068 389.354 210.659C387.865 211.239 386.166 211.528 384.257 211.528ZM406.241 195.455V211H401.145V184.818H406.037V189.08H406.361C406.963 187.693 407.906 186.58 409.19 185.739C410.486 184.898 412.116 184.477 414.082 184.477C415.866 184.477 417.429 184.852 418.77 185.602C420.111 186.341 421.151 187.443 421.889 188.909C422.628 190.375 422.997 192.187 422.997 194.347V211H417.901V194.96C417.901 193.062 417.406 191.58 416.418 190.511C415.429 189.432 414.071 188.892 412.344 188.892C411.162 188.892 410.111 189.148 409.19 189.659C408.281 190.17 407.56 190.92 407.026 191.909C406.503 192.886 406.241 194.068 406.241 195.455ZM451.293 184.818L441.798 211H436.344L426.832 184.818H432.304L438.935 204.966H439.207L445.821 184.818H451.293ZM466.22 211.528C463.766 211.528 461.624 210.966 459.794 209.841C457.964 208.716 456.544 207.142 455.533 205.119C454.521 203.097 454.016 200.733 454.016 198.028C454.016 195.312 454.521 192.937 455.533 190.903C456.544 188.869 457.964 187.29 459.794 186.165C461.624 185.04 463.766 184.477 466.22 184.477C468.675 184.477 470.817 185.04 472.646 186.165C474.476 187.29 475.896 188.869 476.908 190.903C477.919 192.937 478.425 195.312 478.425 198.028C478.425 200.733 477.919 203.097 476.908 205.119C475.896 207.142 474.476 208.716 472.646 209.841C470.817 210.966 468.675 211.528 466.22 211.528ZM466.237 207.25C467.828 207.25 469.146 206.83 470.192 205.989C471.237 205.148 472.01 204.028 472.51 202.631C473.021 201.233 473.277 199.693 473.277 198.011C473.277 196.341 473.021 194.807 472.51 193.409C472.01 192 471.237 190.869 470.192 190.017C469.146 189.165 467.828 188.739 466.237 188.739C464.635 188.739 463.305 189.165 462.249 190.017C461.203 190.869 460.425 192 459.913 193.409C459.413 194.807 459.163 196.341 459.163 198.011C459.163 199.693 459.413 201.233 459.913 202.631C460.425 204.028 461.203 205.148 462.249 205.989C463.305 206.83 464.635 207.25 466.237 207.25ZM489.21 176.091V211H484.114V176.091H489.21ZM518.464 184.818L508.97 211H503.516L494.004 184.818H499.476L506.107 204.966H506.379L512.993 184.818H518.464ZM533.648 211.528C531.068 211.528 528.847 210.977 526.983 209.875C525.131 208.761 523.699 207.199 522.688 205.188C521.688 203.165 521.188 200.795 521.188 198.08C521.188 195.398 521.688 193.034 522.688 190.989C523.699 188.943 525.108 187.347 526.915 186.199C528.733 185.051 530.858 184.477 533.29 184.477C534.767 184.477 536.199 184.722 537.585 185.21C538.972 185.699 540.216 186.466 541.318 187.511C542.42 188.557 543.29 189.915 543.926 191.585C544.563 193.244 544.881 195.261 544.881 197.636V199.443H524.068V195.625H539.886C539.886 194.284 539.614 193.097 539.068 192.062C538.523 191.017 537.756 190.193 536.767 189.591C535.79 188.989 534.642 188.688 533.324 188.688C531.892 188.688 530.642 189.04 529.574 189.744C528.517 190.437 527.699 191.347 527.119 192.472C526.551 193.585 526.267 194.795 526.267 196.102V199.085C526.267 200.835 526.574 202.324 527.188 203.551C527.812 204.778 528.682 205.716 529.795 206.364C530.909 207 532.21 207.318 533.699 207.318C534.665 207.318 535.545 207.182 536.341 206.909C537.136 206.625 537.824 206.205 538.403 205.648C538.983 205.091 539.426 204.403 539.733 203.585L544.557 204.455C544.17 205.875 543.477 207.119 542.477 208.188C541.489 209.244 540.244 210.068 538.744 210.659C537.256 211.239 535.557 211.528 533.648 211.528ZM560.337 211.511C558.223 211.511 556.337 210.972 554.678 209.892C553.03 208.801 551.734 207.25 550.791 205.239C549.859 203.216 549.393 200.79 549.393 197.96C549.393 195.131 549.865 192.71 550.808 190.699C551.763 188.687 553.07 187.148 554.729 186.08C556.388 185.011 558.268 184.477 560.371 184.477C561.996 184.477 563.303 184.75 564.291 185.295C565.291 185.83 566.064 186.455 566.609 187.17C567.166 187.886 567.598 188.517 567.905 189.062H568.212V176.091H573.308V211H568.331V206.926H567.905C567.598 207.483 567.155 208.119 566.575 208.835C566.007 209.551 565.223 210.176 564.223 210.71C563.223 211.244 561.928 211.511 560.337 211.511ZM561.462 207.165C562.928 207.165 564.166 206.778 565.178 206.006C566.2 205.222 566.973 204.136 567.496 202.75C568.03 201.364 568.297 199.75 568.297 197.909C568.297 196.091 568.036 194.5 567.513 193.136C566.99 191.773 566.223 190.71 565.212 189.949C564.2 189.187 562.95 188.807 561.462 188.807C559.928 188.807 558.649 189.205 557.626 190C556.604 190.795 555.831 191.881 555.308 193.256C554.797 194.631 554.541 196.182 554.541 197.909C554.541 199.659 554.803 201.233 555.325 202.631C555.848 204.028 556.621 205.136 557.643 205.955C558.678 206.761 559.95 207.165 561.462 207.165ZM591.611 211.528C589.156 211.528 587.014 210.966 585.185 209.841C583.355 208.716 581.935 207.142 580.923 205.119C579.912 203.097 579.406 200.733 579.406 198.028C579.406 195.312 579.912 192.937 580.923 190.903C581.935 188.869 583.355 187.29 585.185 186.165C587.014 185.04 589.156 184.477 591.611 184.477C594.065 184.477 596.207 185.04 598.037 186.165C599.866 187.29 601.287 188.869 602.298 190.903C603.31 192.937 603.815 195.312 603.815 198.028C603.815 200.733 603.31 203.097 602.298 205.119C601.287 207.142 599.866 208.716 598.037 209.841C596.207 210.966 594.065 211.528 591.611 211.528ZM591.628 207.25C593.219 207.25 594.537 206.83 595.582 205.989C596.628 205.148 597.401 204.028 597.901 202.631C598.412 201.233 598.668 199.693 598.668 198.011C598.668 196.341 598.412 194.807 597.901 193.409C597.401 192 596.628 190.869 595.582 190.017C594.537 189.165 593.219 188.739 591.628 188.739C590.026 188.739 588.696 189.165 587.639 190.017C586.594 190.869 585.815 192 585.304 193.409C584.804 194.807 584.554 196.341 584.554 198.011C584.554 199.693 584.804 201.233 585.304 202.631C585.815 204.028 586.594 205.148 587.639 205.989C588.696 206.83 590.026 207.25 591.628 207.25ZM609.504 211V184.818H614.43V188.977H614.703C615.18 187.568 616.021 186.46 617.226 185.653C618.442 184.835 619.817 184.426 621.351 184.426C621.669 184.426 622.044 184.437 622.476 184.46C622.919 184.483 623.266 184.511 623.516 184.545V189.42C623.311 189.364 622.947 189.301 622.425 189.233C621.902 189.153 621.379 189.114 620.857 189.114C619.652 189.114 618.578 189.369 617.635 189.881C616.703 190.381 615.964 191.08 615.419 191.977C614.874 192.864 614.601 193.875 614.601 195.011V211H609.504ZM641.038 211V176.091H662.686V180.625H646.305V191.261H661.135V195.778H646.305V211H641.038ZM683.699 200.142V184.818H688.812V211H683.801V206.466H683.528C682.926 207.864 681.96 209.028 680.631 209.96C679.313 210.881 677.67 211.341 675.705 211.341C674.023 211.341 672.534 210.972 671.239 210.233C669.955 209.483 668.943 208.375 668.205 206.909C667.477 205.443 667.114 203.631 667.114 201.472V184.818H672.21V200.858C672.21 202.642 672.705 204.062 673.693 205.119C674.682 206.176 675.966 206.705 677.545 206.705C678.5 206.705 679.449 206.466 680.392 205.989C681.347 205.511 682.136 204.79 682.761 203.824C683.398 202.858 683.71 201.631 683.699 200.142ZM700.757 176.091V211H695.661V176.091H700.757ZM712.71 176.091V211H707.614V176.091H712.71ZM734.993 194.04V198.455H719.516V194.04H734.993ZM761.234 185.261C761.053 183.648 760.303 182.398 758.984 181.511C757.666 180.614 756.007 180.165 754.007 180.165C752.575 180.165 751.337 180.392 750.291 180.847C749.246 181.29 748.433 181.903 747.854 182.688C747.286 183.46 747.001 184.341 747.001 185.33C747.001 186.159 747.195 186.875 747.581 187.477C747.979 188.08 748.496 188.585 749.132 188.994C749.78 189.392 750.473 189.727 751.212 190C751.95 190.261 752.661 190.477 753.342 190.648L756.751 191.534C757.865 191.807 759.007 192.176 760.178 192.642C761.348 193.108 762.433 193.722 763.433 194.483C764.433 195.244 765.24 196.188 765.854 197.312C766.479 198.438 766.791 199.784 766.791 201.352C766.791 203.33 766.28 205.085 765.257 206.619C764.246 208.153 762.774 209.364 760.842 210.25C758.922 211.136 756.598 211.58 753.871 211.58C751.257 211.58 748.996 211.165 747.087 210.335C745.178 209.506 743.683 208.33 742.604 206.807C741.524 205.273 740.928 203.455 740.814 201.352H746.098C746.2 202.614 746.609 203.665 747.325 204.506C748.053 205.335 748.979 205.955 750.104 206.364C751.24 206.761 752.484 206.96 753.837 206.96C755.325 206.96 756.649 206.727 757.808 206.261C758.979 205.784 759.899 205.125 760.57 204.284C761.24 203.432 761.575 202.437 761.575 201.301C761.575 200.267 761.28 199.42 760.689 198.761C760.109 198.102 759.32 197.557 758.32 197.125C757.331 196.693 756.212 196.312 754.962 195.983L750.837 194.858C748.041 194.097 745.825 192.977 744.189 191.5C742.564 190.023 741.751 188.068 741.751 185.636C741.751 183.625 742.297 181.869 743.388 180.369C744.479 178.869 745.956 177.705 747.82 176.875C749.683 176.034 751.786 175.614 754.126 175.614C756.49 175.614 758.575 176.028 760.382 176.858C762.2 177.688 763.632 178.83 764.678 180.284C765.723 181.727 766.268 183.386 766.314 185.261H761.234ZM784.898 184.818V188.909H770.597V184.818H784.898ZM774.432 178.545H779.528V203.312C779.528 204.301 779.676 205.045 779.972 205.545C780.267 206.034 780.648 206.369 781.114 206.551C781.591 206.722 782.108 206.807 782.665 206.807C783.074 206.807 783.432 206.778 783.739 206.722C784.045 206.665 784.284 206.619 784.455 206.585L785.375 210.795C785.08 210.909 784.659 211.023 784.114 211.136C783.568 211.261 782.886 211.33 782.068 211.341C780.727 211.364 779.477 211.125 778.318 210.625C777.159 210.125 776.222 209.352 775.506 208.307C774.79 207.261 774.432 205.949 774.432 204.369V178.545ZM798.155 211.58C796.496 211.58 794.996 211.273 793.655 210.659C792.314 210.034 791.251 209.131 790.467 207.949C789.695 206.767 789.308 205.318 789.308 203.602C789.308 202.125 789.592 200.909 790.161 199.955C790.729 199 791.496 198.244 792.462 197.688C793.428 197.131 794.507 196.71 795.7 196.426C796.893 196.142 798.109 195.926 799.348 195.778C800.916 195.597 802.189 195.449 803.166 195.335C804.143 195.21 804.854 195.011 805.297 194.739C805.74 194.466 805.962 194.023 805.962 193.409V193.29C805.962 191.801 805.541 190.648 804.7 189.83C803.871 189.011 802.632 188.602 800.984 188.602C799.268 188.602 797.916 188.983 796.928 189.744C795.95 190.494 795.274 191.33 794.899 192.25L790.109 191.159C790.678 189.568 791.507 188.284 792.598 187.307C793.7 186.318 794.967 185.602 796.399 185.159C797.831 184.705 799.337 184.477 800.916 184.477C801.962 184.477 803.07 184.602 804.24 184.852C805.422 185.091 806.524 185.534 807.547 186.182C808.581 186.83 809.428 187.756 810.087 188.96C810.746 190.153 811.075 191.705 811.075 193.614V211H806.098V207.42H805.893C805.564 208.08 805.07 208.727 804.411 209.364C803.751 210 802.905 210.528 801.871 210.949C800.837 211.369 799.598 211.58 798.155 211.58ZM799.263 207.489C800.672 207.489 801.876 207.21 802.876 206.653C803.888 206.097 804.655 205.369 805.178 204.472C805.712 203.562 805.979 202.591 805.979 201.557V198.182C805.797 198.364 805.445 198.534 804.922 198.693C804.411 198.841 803.825 198.972 803.166 199.085C802.507 199.187 801.865 199.284 801.24 199.375C800.615 199.455 800.092 199.523 799.672 199.58C798.683 199.705 797.78 199.915 796.962 200.21C796.155 200.506 795.507 200.932 795.018 201.489C794.541 202.034 794.303 202.761 794.303 203.67C794.303 204.932 794.768 205.886 795.7 206.534C796.632 207.17 797.82 207.489 799.263 207.489ZM828.892 211.528C826.358 211.528 824.176 210.955 822.347 209.807C820.528 208.648 819.131 207.051 818.153 205.017C817.176 202.983 816.688 200.653 816.688 198.028C816.688 195.369 817.188 193.023 818.188 190.989C819.188 188.943 820.597 187.347 822.415 186.199C824.233 185.051 826.375 184.477 828.841 184.477C830.83 184.477 832.602 184.847 834.159 185.585C835.716 186.312 836.972 187.335 837.926 188.653C838.892 189.972 839.466 191.511 839.648 193.273H834.688C834.415 192.045 833.79 190.989 832.812 190.102C831.847 189.216 830.551 188.773 828.926 188.773C827.506 188.773 826.261 189.148 825.193 189.898C824.136 190.636 823.313 191.693 822.722 193.068C822.131 194.432 821.835 196.045 821.835 197.909C821.835 199.818 822.125 201.466 822.705 202.852C823.284 204.239 824.102 205.312 825.159 206.074C826.227 206.835 827.483 207.216 828.926 207.216C829.892 207.216 830.767 207.04 831.551 206.688C832.347 206.324 833.011 205.807 833.545 205.136C834.091 204.466 834.472 203.659 834.688 202.716H839.648C839.466 204.409 838.915 205.92 837.994 207.25C837.074 208.58 835.841 209.625 834.295 210.386C832.761 211.148 830.96 211.528 828.892 211.528ZM849.786 202.119L849.751 195.898H850.638L861.07 184.818H867.172L855.274 197.432H854.473L849.786 202.119ZM845.098 211V176.091H850.195V211H845.098ZM861.632 211L852.257 198.557L855.768 194.994L867.888 211H861.632Z" fill="white"/>
<path d="M238.375 169.23C231.687 191.915 217.341 211.579 197.78 224.872C178.219 238.165 154.655 244.264 131.101 242.13C107.548 239.997 85.4625 229.762 68.6089 213.17C51.7554 196.579 41.1759 174.657 38.6734 151.14C36.1709 127.623 41.9001 103.965 54.8848 84.1988C67.8695 64.4318 87.3065 49.7791 109.884 42.7368C132.461 35.6944 156.781 36.6982 178.701 45.5771C200.621 54.4563 218.784 70.6609 230.096 91.4304L220.586 96.6095C210.473 78.0404 194.234 63.5523 174.636 55.6136C155.038 47.6753 133.293 46.7778 113.108 53.0744C92.9224 59.3705 75.5447 72.4713 63.9355 90.1442C52.3262 107.817 47.204 128.968 49.4413 149.994C51.6787 171.02 61.1375 190.62 76.2057 205.454C91.2738 220.288 111.02 229.438 132.078 231.346C153.137 233.253 174.205 227.8 191.694 215.915C209.182 204.031 222.009 186.45 227.988 166.168L238.375 169.23Z" fill="white"/>
<path fill-rule="evenodd" clip-rule="evenodd" d="M184.839 71H122.446V89.949H127.8C129.837 90.1122 131.497 90.4754 132.777 91.0388C134.832 91.9595 136.237 93.4171 136.994 95.4123C137.75 97.4071 138.183 99.9449 138.293 103.025L138.761 116.168C138.854 118.769 139.473 121.248 140.62 123.606C141.766 125.964 143.793 128.017 146.699 129.764C148.297 130.742 150.257 131.589 152.579 132.304V138.082C150.403 138.941 148.576 139.898 147.098 140.955C144.324 142.939 142.45 145.147 141.474 147.581C140.498 150.015 140.057 152.532 140.149 155.133L140.618 168.275C140.728 171.356 140.476 173.918 139.864 175.961C139.251 178.005 137.953 179.559 135.969 180.624C135.049 181.109 133.912 181.5 132.558 181.794C131.793 181.529 131.071 181.202 130.39 180.813C128.246 179.588 126.561 177.771 125.335 175.364C124.153 172.913 123.497 169.959 123.366 166.501H91.0007C90.9568 176.13 92.9483 184.029 96.9747 190.201C101.045 196.372 106.494 200.924 113.321 203.856C120.192 206.788 127.83 208.254 136.233 208.254C145.73 208.254 154.089 206.46 161.311 202.871C168.576 199.282 174.266 194.249 178.38 187.772C182.494 181.25 184.573 173.635 184.616 164.926V89.949H184.839V71Z" fill="white"/>
<path d="M148.358 24.1986C163.608 25.2288 178.507 29.2527 192.202 36.0405C205.897 42.8283 218.121 52.247 228.176 63.7592C238.231 75.271 245.92 88.6509 250.804 103.134C255.689 117.618 257.672 132.922 256.642 148.172C255.612 163.422 251.588 178.32 244.8 192.015C238.012 205.71 228.594 217.934 217.082 227.99C205.569 238.045 192.19 245.734 177.706 250.618C163.223 255.502 147.919 257.486 132.668 256.456L133.499 244.154C147.134 245.075 160.817 243.302 173.767 238.935C186.716 234.568 198.678 227.694 208.971 218.703C219.263 209.714 227.684 198.784 233.753 186.54C239.822 174.296 243.419 160.976 244.341 147.341C245.262 133.707 243.488 120.023 239.121 107.074C234.754 94.1248 227.88 82.1624 218.89 71.8699C209.9 61.5773 198.971 53.1566 186.726 47.0878C174.482 41.019 161.162 37.4213 147.527 36.5003L148.358 24.1986Z" fill="white"/>
</svg>
