<svg width="1440" height="1024" viewBox="0 0 1440 1024" fill="none" xmlns="http://www.w3.org/2000/svg">
<rect width="1440" height="1024" fill="#1E1E1E"/>
<rect width="1440" height="1024" fill="#111827"/>
<path d="M554.05 439.273H571.379V489.557C571.356 494.268 570.231 498.387 568.006 501.915C565.78 505.419 562.703 508.141 558.773 510.082C554.866 512.024 550.345 512.994 545.207 512.994C540.662 512.994 536.531 512.201 532.814 510.615C529.121 509.029 526.173 506.567 523.972 503.229C521.794 499.891 520.716 495.617 520.74 490.409H538.247C538.318 492.279 538.673 493.877 539.312 495.203C539.975 496.505 540.887 497.488 542.047 498.151C543.207 498.813 544.592 499.145 546.202 499.145C547.883 499.145 549.303 498.79 550.463 498.08C551.623 497.346 552.499 496.268 553.091 494.848C553.706 493.428 554.026 491.664 554.05 489.557V439.273ZM597.791 512.923C594.311 512.923 591.221 512.343 588.522 511.183C585.847 510 583.728 508.224 582.166 505.857C580.627 503.465 579.858 500.471 579.858 496.872C579.858 493.842 580.39 491.285 581.456 489.202C582.521 487.118 583.989 485.426 585.859 484.124C587.729 482.821 589.884 481.839 592.322 481.176C594.761 480.49 597.365 480.028 600.135 479.791C603.236 479.507 605.734 479.211 607.627 478.903C609.521 478.572 610.895 478.11 611.747 477.518C612.623 476.903 613.061 476.039 613.061 474.926V474.749C613.061 472.926 612.433 471.517 611.179 470.523C609.924 469.528 608.231 469.031 606.1 469.031C603.804 469.031 601.958 469.528 600.561 470.523C599.164 471.517 598.276 472.89 597.897 474.642L581.882 474.074C582.355 470.759 583.574 467.8 585.539 465.196C587.528 462.568 590.251 460.509 593.707 459.017C597.187 457.502 601.366 456.744 606.243 456.744C609.723 456.744 612.931 457.159 615.866 457.987C618.802 458.792 621.359 459.976 623.537 461.538C625.715 463.077 627.395 464.971 628.579 467.22C629.787 469.469 630.39 472.038 630.39 474.926V512H614.055V504.401H613.629C612.658 506.247 611.415 507.81 609.9 509.088C608.409 510.366 606.645 511.325 604.609 511.964C602.597 512.604 600.324 512.923 597.791 512.923ZM603.153 501.56C605.023 501.56 606.704 501.181 608.196 500.423C609.711 499.666 610.918 498.624 611.818 497.298C612.717 495.949 613.167 494.386 613.167 492.611V487.426C612.67 487.687 612.066 487.923 611.356 488.136C610.67 488.349 609.912 488.551 609.083 488.74C608.255 488.929 607.403 489.095 606.527 489.237C605.651 489.379 604.81 489.509 604.005 489.628C602.372 489.888 600.975 490.291 599.815 490.835C598.679 491.38 597.803 492.09 597.187 492.966C596.595 493.818 596.299 494.836 596.299 496.02C596.299 497.819 596.939 499.192 598.217 500.139C599.519 501.086 601.164 501.56 603.153 501.56ZM641.008 512V457.455H657.876V467.398H658.444C659.439 463.799 661.06 461.124 663.309 459.372C665.558 457.597 668.174 456.709 671.157 456.709C671.962 456.709 672.791 456.768 673.643 456.886C674.495 456.981 675.288 457.135 676.022 457.348V472.44C675.194 472.156 674.105 471.931 672.755 471.766C671.43 471.6 670.246 471.517 669.204 471.517C667.145 471.517 665.286 471.979 663.629 472.902C661.995 473.802 660.705 475.068 659.758 476.702C658.835 478.312 658.373 480.205 658.373 482.384V512H641.008ZM700.188 512.781C696.163 512.781 692.506 511.74 689.215 509.656C685.924 507.573 683.296 504.448 681.331 500.281C679.366 496.115 678.384 490.942 678.384 484.763C678.384 478.347 679.402 473.068 681.438 468.925C683.474 464.782 686.137 461.716 689.428 459.727C692.742 457.739 696.305 456.744 700.117 456.744C702.981 456.744 705.432 457.241 707.468 458.236C709.504 459.206 711.185 460.461 712.51 462C713.836 463.539 714.842 465.137 715.529 466.794H715.884V439.273H733.249V512H716.061V503.158H715.529C714.795 504.839 713.753 506.413 712.404 507.881C711.054 509.348 709.362 510.532 707.326 511.432C705.313 512.331 702.934 512.781 700.188 512.781ZM706.225 499.251C708.332 499.251 710.131 498.66 711.623 497.476C713.114 496.268 714.262 494.576 715.067 492.398C715.872 490.22 716.275 487.663 716.275 484.727C716.275 481.744 715.872 479.176 715.067 477.021C714.286 474.867 713.138 473.21 711.623 472.05C710.131 470.89 708.332 470.31 706.225 470.31C704.07 470.31 702.248 470.902 700.756 472.085C699.265 473.269 698.128 474.938 697.347 477.092C696.589 479.247 696.211 481.792 696.211 484.727C696.211 487.663 696.601 490.22 697.382 492.398C698.164 494.576 699.288 496.268 700.756 497.476C702.248 498.66 704.07 499.251 706.225 499.251ZM744.231 512V457.455H761.596V512H744.231ZM752.931 451.098C750.493 451.098 748.397 450.293 746.646 448.683C744.894 447.05 744.018 445.085 744.018 442.788C744.018 440.516 744.894 438.574 746.646 436.964C748.397 435.331 750.493 434.514 752.931 434.514C755.393 434.514 757.488 435.331 759.217 436.964C760.969 438.574 761.844 440.516 761.844 442.788C761.844 445.085 760.969 447.05 759.217 448.683C757.488 450.293 755.393 451.098 752.931 451.098ZM798.146 513.03C792.44 513.03 787.516 511.905 783.373 509.656C779.254 507.384 776.082 504.152 773.856 499.962C771.654 495.748 770.554 490.741 770.554 484.94C770.554 479.306 771.666 474.382 773.892 470.168C776.117 465.93 779.254 462.639 783.302 460.295C787.35 457.928 792.121 456.744 797.613 456.744C801.496 456.744 805.047 457.348 808.267 458.555C811.486 459.763 814.268 461.55 816.612 463.918C818.956 466.285 820.779 469.209 822.081 472.689C823.383 476.145 824.034 480.111 824.034 484.585V488.918H776.626V478.832H807.876C807.852 476.986 807.414 475.34 806.562 473.896C805.71 472.452 804.538 471.328 803.047 470.523C801.579 469.694 799.886 469.28 797.968 469.28C796.027 469.28 794.287 469.718 792.748 470.594C791.209 471.446 789.99 472.618 789.091 474.109C788.191 475.577 787.717 477.246 787.67 479.116V489.379C787.67 491.605 788.108 493.558 788.984 495.239C789.86 496.896 791.103 498.186 792.713 499.109C794.323 500.033 796.24 500.494 798.466 500.494C800.004 500.494 801.401 500.281 802.656 499.855C803.911 499.429 804.988 498.802 805.887 497.973C806.787 497.144 807.462 496.126 807.912 494.919L823.856 495.381C823.193 498.955 821.737 502.069 819.488 504.72C817.263 507.348 814.339 509.396 810.717 510.864C807.095 512.308 802.904 513.03 798.146 513.03ZM850.268 439.273V512H832.903V439.273H850.268ZM948.821 465.622H931.065C930.828 463.799 930.343 462.154 929.609 460.686C928.875 459.218 927.904 457.964 926.697 456.922C925.49 455.88 924.057 455.087 922.4 454.543C920.767 453.974 918.956 453.69 916.967 453.69C913.44 453.69 910.397 454.554 907.841 456.283C905.307 458.011 903.354 460.509 901.981 463.776C900.632 467.043 899.957 470.996 899.957 475.636C899.957 480.466 900.644 484.514 902.017 487.781C903.413 491.025 905.367 493.475 907.876 495.132C910.409 496.766 913.404 497.582 916.86 497.582C918.802 497.582 920.565 497.334 922.152 496.837C923.761 496.339 925.17 495.617 926.377 494.67C927.609 493.7 928.615 492.528 929.396 491.155C930.201 489.758 930.757 488.184 931.065 486.432L948.821 486.538C948.513 489.758 947.578 492.93 946.015 496.055C944.476 499.18 942.358 502.033 939.659 504.614C936.96 507.17 933.669 509.206 929.787 510.722C925.928 512.237 921.501 512.994 916.505 512.994C909.924 512.994 904.029 511.55 898.821 508.662C893.636 505.75 889.54 501.512 886.534 495.949C883.527 490.385 882.024 483.615 882.024 475.636C882.024 467.634 883.551 460.852 886.605 455.288C889.659 449.725 893.79 445.499 898.998 442.611C904.207 439.723 910.042 438.278 916.505 438.278C920.909 438.278 924.981 438.894 928.721 440.125C932.462 441.332 935.752 443.108 938.593 445.452C941.434 447.772 943.743 450.625 945.518 454.01C947.294 457.395 948.395 461.266 948.821 465.622ZM974.256 512.923C970.776 512.923 967.686 512.343 964.987 511.183C962.312 510 960.193 508.224 958.631 505.857C957.092 503.465 956.322 500.471 956.322 496.872C956.322 493.842 956.855 491.285 957.92 489.202C958.986 487.118 960.454 485.426 962.324 484.124C964.194 482.821 966.348 481.839 968.787 481.176C971.225 480.49 973.83 480.028 976.599 479.791C979.701 479.507 982.198 479.211 984.092 478.903C985.986 478.572 987.359 478.11 988.212 477.518C989.088 476.903 989.526 476.039 989.526 474.926V474.749C989.526 472.926 988.898 471.517 987.643 470.523C986.389 469.528 984.696 469.031 982.565 469.031C980.269 469.031 978.422 469.528 977.026 470.523C975.629 471.517 974.741 472.89 974.362 474.642L958.347 474.074C958.82 470.759 960.039 467.8 962.004 465.196C963.993 462.568 966.715 460.509 970.172 459.017C973.652 457.502 977.83 456.744 982.707 456.744C986.188 456.744 989.395 457.159 992.331 457.987C995.267 458.792 997.823 459.976 1000 461.538C1002.18 463.077 1003.86 464.971 1005.04 467.22C1006.25 469.469 1006.86 472.038 1006.86 474.926V512H990.52V504.401H990.094C989.123 506.247 987.88 507.81 986.365 509.088C984.874 510.366 983.11 511.325 981.074 511.964C979.062 512.604 976.789 512.923 974.256 512.923ZM979.618 501.56C981.488 501.56 983.169 501.181 984.661 500.423C986.176 499.666 987.383 498.624 988.283 497.298C989.182 495.949 989.632 494.386 989.632 492.611V487.426C989.135 487.687 988.531 487.923 987.821 488.136C987.134 488.349 986.377 488.551 985.548 488.74C984.72 488.929 983.867 489.095 982.991 489.237C982.116 489.379 981.275 489.509 980.47 489.628C978.837 489.888 977.44 490.291 976.28 490.835C975.143 491.38 974.268 492.09 973.652 492.966C973.06 493.818 972.764 494.836 972.764 496.02C972.764 497.819 973.403 499.192 974.682 500.139C975.984 501.086 977.629 501.56 979.618 501.56ZM1017.47 512V457.455H1034.34V467.398H1034.91C1035.9 463.799 1037.53 461.124 1039.77 459.372C1042.02 457.597 1044.64 456.709 1047.62 456.709C1048.43 456.709 1049.26 456.768 1050.11 456.886C1050.96 456.981 1051.75 457.135 1052.49 457.348V472.44C1051.66 472.156 1050.57 471.931 1049.22 471.766C1047.89 471.6 1046.71 471.517 1045.67 471.517C1043.61 471.517 1041.75 471.979 1040.09 472.902C1038.46 473.802 1037.17 475.068 1036.22 476.702C1035.3 478.312 1034.84 480.205 1034.84 482.384V512H1017.47ZM1076.93 439.273V512H1059.56V439.273H1076.93ZM1113.44 513.03C1107.71 513.03 1102.79 511.858 1098.67 509.514C1094.57 507.147 1091.41 503.856 1089.19 499.642C1086.99 495.404 1085.89 490.492 1085.89 484.905C1085.89 479.294 1086.99 474.382 1089.19 470.168C1091.41 465.93 1094.57 462.639 1098.67 460.295C1102.79 457.928 1107.71 456.744 1113.44 456.744C1119.17 456.744 1124.08 457.928 1128.18 460.295C1132.3 462.639 1135.46 465.93 1137.66 470.168C1139.89 474.382 1141 479.294 1141 484.905C1141 490.492 1139.89 495.404 1137.66 499.642C1135.46 503.856 1132.3 507.147 1128.18 509.514C1124.08 511.858 1119.17 513.03 1113.44 513.03ZM1113.55 499.926C1115.63 499.926 1117.4 499.287 1118.84 498.009C1120.28 496.73 1121.39 494.955 1122.14 492.682C1122.92 490.409 1123.31 487.781 1123.31 484.798C1123.31 481.768 1122.92 479.116 1122.14 476.844C1121.39 474.571 1120.28 472.795 1118.84 471.517C1117.4 470.239 1115.63 469.599 1113.55 469.599C1111.39 469.599 1109.57 470.239 1108.08 471.517C1106.61 472.795 1105.49 474.571 1104.71 476.844C1103.95 479.116 1103.57 481.768 1103.57 484.798C1103.57 487.781 1103.95 490.409 1104.71 492.682C1105.49 494.955 1106.61 496.73 1108.08 498.009C1109.57 499.287 1111.39 499.926 1113.55 499.926ZM1197.52 474.109L1181.57 474.536C1181.41 473.399 1180.96 472.393 1180.22 471.517C1179.49 470.617 1178.53 469.919 1177.35 469.422C1176.19 468.901 1174.84 468.641 1173.3 468.641C1171.28 468.641 1169.57 469.043 1168.15 469.848C1166.75 470.653 1166.06 471.742 1166.09 473.115C1166.06 474.18 1166.49 475.104 1167.37 475.885C1168.27 476.666 1169.86 477.294 1172.16 477.767L1182.67 479.756C1188.12 480.797 1192.17 482.526 1194.82 484.94C1197.49 487.355 1198.84 490.551 1198.87 494.528C1198.84 498.269 1197.73 501.524 1195.53 504.294C1193.35 507.064 1190.37 509.218 1186.58 510.757C1182.79 512.272 1178.46 513.03 1173.58 513.03C1165.79 513.03 1159.65 511.432 1155.15 508.236C1150.68 505.016 1148.12 500.707 1147.48 495.31L1164.63 494.884C1165.01 496.872 1165.99 498.387 1167.58 499.429C1169.17 500.471 1171.19 500.991 1173.65 500.991C1175.88 500.991 1177.69 500.577 1179.09 499.749C1180.48 498.92 1181.19 497.819 1181.22 496.446C1181.19 495.215 1180.65 494.232 1179.58 493.499C1178.52 492.741 1176.85 492.149 1174.58 491.723L1165.06 489.912C1159.59 488.918 1155.52 487.083 1152.84 484.408C1150.17 481.709 1148.84 478.276 1148.87 474.109C1148.84 470.464 1149.81 467.35 1151.78 464.77C1153.74 462.166 1156.54 460.177 1160.16 458.804C1163.78 457.431 1168.05 456.744 1172.98 456.744C1180.36 456.744 1186.19 458.295 1190.45 461.396C1194.71 464.474 1197.07 468.712 1197.52 474.109Z" fill="white"/>
<path d="M534.136 582H522.835V547.091H534.494C537.915 547.091 540.852 547.79 543.307 549.188C545.761 550.574 547.642 552.568 548.949 555.17C550.267 557.761 550.926 560.869 550.926 564.494C550.926 568.131 550.261 571.256 548.932 573.869C547.614 576.483 545.705 578.494 543.205 579.903C540.705 581.301 537.682 582 534.136 582ZM528.102 577.398H533.847C536.506 577.398 538.716 576.898 540.477 575.898C542.239 574.886 543.557 573.426 544.432 571.517C545.307 569.597 545.744 567.256 545.744 564.494C545.744 561.756 545.307 559.432 544.432 557.523C543.568 555.614 542.278 554.165 540.562 553.176C538.847 552.187 536.716 551.693 534.17 551.693H528.102V577.398ZM568.351 582.528C565.771 582.528 563.55 581.977 561.686 580.875C559.834 579.761 558.402 578.199 557.391 576.188C556.391 574.165 555.891 571.795 555.891 569.08C555.891 566.398 556.391 564.034 557.391 561.989C558.402 559.943 559.811 558.347 561.618 557.199C563.436 556.051 565.561 555.477 567.993 555.477C569.47 555.477 570.902 555.722 572.288 556.21C573.675 556.699 574.919 557.466 576.021 558.511C577.124 559.557 577.993 560.915 578.629 562.585C579.266 564.244 579.584 566.261 579.584 568.636V570.443H558.771V566.625H574.589C574.589 565.284 574.317 564.097 573.771 563.062C573.226 562.017 572.459 561.193 571.47 560.591C570.493 559.989 569.345 559.688 568.027 559.688C566.595 559.688 565.345 560.04 564.277 560.744C563.22 561.437 562.402 562.347 561.822 563.472C561.254 564.585 560.97 565.795 560.97 567.102V570.085C560.97 571.835 561.277 573.324 561.891 574.551C562.516 575.778 563.385 576.716 564.499 577.364C565.612 578 566.913 578.318 568.402 578.318C569.368 578.318 570.249 578.182 571.044 577.909C571.839 577.625 572.527 577.205 573.107 576.648C573.686 576.091 574.129 575.403 574.436 574.585L579.26 575.455C578.874 576.875 578.18 578.119 577.18 579.188C576.192 580.244 574.947 581.068 573.447 581.659C571.959 582.239 570.26 582.528 568.351 582.528ZM604.858 562.21L600.239 563.028C600.045 562.437 599.739 561.875 599.318 561.341C598.909 560.807 598.352 560.369 597.648 560.028C596.943 559.687 596.063 559.517 595.006 559.517C593.563 559.517 592.358 559.841 591.392 560.489C590.426 561.125 589.943 561.949 589.943 562.96C589.943 563.835 590.267 564.54 590.915 565.074C591.563 565.608 592.608 566.045 594.051 566.386L598.21 567.341C600.619 567.898 602.415 568.756 603.597 569.915C604.778 571.074 605.369 572.58 605.369 574.432C605.369 576 604.915 577.398 604.006 578.625C603.108 579.841 601.852 580.795 600.239 581.489C598.636 582.182 596.778 582.528 594.665 582.528C591.733 582.528 589.341 581.903 587.489 580.653C585.636 579.392 584.5 577.602 584.08 575.284L589.006 574.534C589.313 575.818 589.943 576.79 590.898 577.449C591.852 578.097 593.097 578.42 594.631 578.42C596.301 578.42 597.636 578.074 598.636 577.381C599.636 576.676 600.136 575.818 600.136 574.807C600.136 573.989 599.83 573.301 599.216 572.744C598.614 572.187 597.688 571.767 596.438 571.483L592.006 570.511C589.563 569.955 587.756 569.068 586.585 567.852C585.426 566.636 584.847 565.097 584.847 563.233C584.847 561.687 585.278 560.335 586.142 559.176C587.006 558.017 588.199 557.114 589.722 556.466C591.244 555.807 592.989 555.477 594.955 555.477C597.784 555.477 600.011 556.091 601.636 557.318C603.261 558.534 604.335 560.165 604.858 562.21ZM622.257 582.528C619.678 582.528 617.456 581.977 615.592 580.875C613.74 579.761 612.308 578.199 611.297 576.188C610.297 574.165 609.797 571.795 609.797 569.08C609.797 566.398 610.297 564.034 611.297 561.989C612.308 559.943 613.717 558.347 615.524 557.199C617.342 556.051 619.467 555.477 621.899 555.477C623.376 555.477 624.808 555.722 626.195 556.21C627.581 556.699 628.825 557.466 629.928 558.511C631.03 559.557 631.899 560.915 632.536 562.585C633.172 564.244 633.49 566.261 633.49 568.636V570.443H612.678V566.625H628.496C628.496 565.284 628.223 564.097 627.678 563.062C627.132 562.017 626.365 561.193 625.376 560.591C624.399 559.989 623.251 559.688 621.933 559.688C620.501 559.688 619.251 560.04 618.183 560.744C617.126 561.437 616.308 562.347 615.729 563.472C615.161 564.585 614.876 565.795 614.876 567.102V570.085C614.876 571.835 615.183 573.324 615.797 574.551C616.422 575.778 617.291 576.716 618.405 577.364C619.518 578 620.82 578.318 622.308 578.318C623.274 578.318 624.155 578.182 624.95 577.909C625.746 577.625 626.433 577.205 627.013 576.648C627.592 576.091 628.036 575.403 628.342 574.585L633.166 575.455C632.78 576.875 632.087 578.119 631.087 579.188C630.098 580.244 628.854 581.068 627.354 581.659C625.865 582.239 624.166 582.528 622.257 582.528ZM644.241 566.455V582H639.145V555.818H644.037V560.08H644.361C644.963 558.693 645.906 557.58 647.19 556.739C648.486 555.898 650.116 555.477 652.082 555.477C653.866 555.477 655.429 555.852 656.77 556.602C658.111 557.341 659.151 558.443 659.889 559.909C660.628 561.375 660.997 563.187 660.997 565.347V582H655.901V565.96C655.901 564.062 655.406 562.58 654.418 561.511C653.429 560.432 652.071 559.892 650.344 559.892C649.162 559.892 648.111 560.148 647.19 560.659C646.281 561.17 645.56 561.92 645.026 562.909C644.503 563.886 644.241 565.068 644.241 566.455ZM689.293 555.818L679.798 582H674.344L664.832 555.818H670.304L676.935 575.966H677.207L683.821 555.818H689.293ZM704.22 582.528C701.766 582.528 699.624 581.966 697.794 580.841C695.964 579.716 694.544 578.142 693.533 576.119C692.521 574.097 692.016 571.733 692.016 569.028C692.016 566.312 692.521 563.937 693.533 561.903C694.544 559.869 695.964 558.29 697.794 557.165C699.624 556.04 701.766 555.477 704.22 555.477C706.675 555.477 708.817 556.04 710.646 557.165C712.476 558.29 713.896 559.869 714.908 561.903C715.919 563.937 716.425 566.312 716.425 569.028C716.425 571.733 715.919 574.097 714.908 576.119C713.896 578.142 712.476 579.716 710.646 580.841C708.817 581.966 706.675 582.528 704.22 582.528ZM704.237 578.25C705.828 578.25 707.146 577.83 708.192 576.989C709.237 576.148 710.01 575.028 710.51 573.631C711.021 572.233 711.277 570.693 711.277 569.011C711.277 567.341 711.021 565.807 710.51 564.409C710.01 563 709.237 561.869 708.192 561.017C707.146 560.165 705.828 559.739 704.237 559.739C702.635 559.739 701.305 560.165 700.249 561.017C699.203 561.869 698.425 563 697.913 564.409C697.413 565.807 697.163 567.341 697.163 569.011C697.163 570.693 697.413 572.233 697.913 573.631C698.425 575.028 699.203 576.148 700.249 576.989C701.305 577.83 702.635 578.25 704.237 578.25ZM727.21 547.091V582H722.114V547.091H727.21ZM756.464 555.818L746.97 582H741.516L732.004 555.818H737.476L744.107 575.966H744.379L750.993 555.818H756.464ZM771.648 582.528C769.068 582.528 766.847 581.977 764.983 580.875C763.131 579.761 761.699 578.199 760.688 576.188C759.688 574.165 759.188 571.795 759.188 569.08C759.188 566.398 759.688 564.034 760.688 561.989C761.699 559.943 763.108 558.347 764.915 557.199C766.733 556.051 768.858 555.477 771.29 555.477C772.767 555.477 774.199 555.722 775.585 556.21C776.972 556.699 778.216 557.466 779.318 558.511C780.42 559.557 781.29 560.915 781.926 562.585C782.563 564.244 782.881 566.261 782.881 568.636V570.443H762.068V566.625H777.886C777.886 565.284 777.614 564.097 777.068 563.062C776.523 562.017 775.756 561.193 774.767 560.591C773.79 559.989 772.642 559.688 771.324 559.688C769.892 559.688 768.642 560.04 767.574 560.744C766.517 561.437 765.699 562.347 765.119 563.472C764.551 564.585 764.267 565.795 764.267 567.102V570.085C764.267 571.835 764.574 573.324 765.188 574.551C765.812 575.778 766.682 576.716 767.795 577.364C768.909 578 770.21 578.318 771.699 578.318C772.665 578.318 773.545 578.182 774.341 577.909C775.136 577.625 775.824 577.205 776.403 576.648C776.983 576.091 777.426 575.403 777.733 574.585L782.557 575.455C782.17 576.875 781.477 578.119 780.477 579.188C779.489 580.244 778.244 581.068 776.744 581.659C775.256 582.239 773.557 582.528 771.648 582.528ZM798.337 582.511C796.223 582.511 794.337 581.972 792.678 580.892C791.03 579.801 789.734 578.25 788.791 576.239C787.859 574.216 787.393 571.79 787.393 568.96C787.393 566.131 787.865 563.71 788.808 561.699C789.763 559.687 791.07 558.148 792.729 557.08C794.388 556.011 796.268 555.477 798.371 555.477C799.996 555.477 801.303 555.75 802.291 556.295C803.291 556.83 804.064 557.455 804.609 558.17C805.166 558.886 805.598 559.517 805.905 560.062H806.212V547.091H811.308V582H806.331V577.926H805.905C805.598 578.483 805.155 579.119 804.575 579.835C804.007 580.551 803.223 581.176 802.223 581.71C801.223 582.244 799.928 582.511 798.337 582.511ZM799.462 578.165C800.928 578.165 802.166 577.778 803.178 577.006C804.2 576.222 804.973 575.136 805.496 573.75C806.03 572.364 806.297 570.75 806.297 568.909C806.297 567.091 806.036 565.5 805.513 564.136C804.99 562.773 804.223 561.71 803.212 560.949C802.2 560.187 800.95 559.807 799.462 559.807C797.928 559.807 796.649 560.205 795.626 561C794.604 561.795 793.831 562.881 793.308 564.256C792.797 565.631 792.541 567.182 792.541 568.909C792.541 570.659 792.803 572.233 793.325 573.631C793.848 575.028 794.621 576.136 795.643 576.955C796.678 577.761 797.95 578.165 799.462 578.165ZM829.611 582.528C827.156 582.528 825.014 581.966 823.185 580.841C821.355 579.716 819.935 578.142 818.923 576.119C817.912 574.097 817.406 571.733 817.406 569.028C817.406 566.312 817.912 563.937 818.923 561.903C819.935 559.869 821.355 558.29 823.185 557.165C825.014 556.04 827.156 555.477 829.611 555.477C832.065 555.477 834.207 556.04 836.037 557.165C837.866 558.29 839.287 559.869 840.298 561.903C841.31 563.937 841.815 566.312 841.815 569.028C841.815 571.733 841.31 574.097 840.298 576.119C839.287 578.142 837.866 579.716 836.037 580.841C834.207 581.966 832.065 582.528 829.611 582.528ZM829.628 578.25C831.219 578.25 832.537 577.83 833.582 576.989C834.628 576.148 835.401 575.028 835.901 573.631C836.412 572.233 836.668 570.693 836.668 569.011C836.668 567.341 836.412 565.807 835.901 564.409C835.401 563 834.628 561.869 833.582 561.017C832.537 560.165 831.219 559.739 829.628 559.739C828.026 559.739 826.696 560.165 825.639 561.017C824.594 561.869 823.815 563 823.304 564.409C822.804 565.807 822.554 567.341 822.554 569.011C822.554 570.693 822.804 572.233 823.304 573.631C823.815 575.028 824.594 576.148 825.639 576.989C826.696 577.83 828.026 578.25 829.628 578.25ZM847.504 582V555.818H852.43V559.977H852.703C853.18 558.568 854.021 557.46 855.226 556.653C856.442 555.835 857.817 555.426 859.351 555.426C859.669 555.426 860.044 555.437 860.476 555.46C860.919 555.483 861.266 555.511 861.516 555.545V560.42C861.311 560.364 860.947 560.301 860.425 560.233C859.902 560.153 859.379 560.114 858.857 560.114C857.652 560.114 856.578 560.369 855.635 560.881C854.703 561.381 853.964 562.08 853.419 562.977C852.874 563.864 852.601 564.875 852.601 566.011V582H847.504ZM879.038 582V547.091H900.686V551.625H884.305V562.261H899.135V566.778H884.305V582H879.038ZM921.699 571.142V555.818H926.812V582H921.801V577.466H921.528C920.926 578.864 919.96 580.028 918.631 580.96C917.313 581.881 915.67 582.341 913.705 582.341C912.023 582.341 910.534 581.972 909.239 581.233C907.955 580.483 906.943 579.375 906.205 577.909C905.477 576.443 905.114 574.631 905.114 572.472V555.818H910.21V571.858C910.21 573.642 910.705 575.062 911.693 576.119C912.682 577.176 913.966 577.705 915.545 577.705C916.5 577.705 917.449 577.466 918.392 576.989C919.347 576.511 920.136 575.79 920.761 574.824C921.398 573.858 921.71 572.631 921.699 571.142ZM938.757 547.091V582H933.661V547.091H938.757ZM950.71 547.091V582H945.614V547.091H950.71ZM972.993 565.04V569.455H957.516V565.04H972.993ZM999.234 556.261C999.053 554.648 998.303 553.398 996.984 552.511C995.666 551.614 994.007 551.165 992.007 551.165C990.575 551.165 989.337 551.392 988.291 551.847C987.246 552.29 986.433 552.903 985.854 553.688C985.286 554.46 985.001 555.341 985.001 556.33C985.001 557.159 985.195 557.875 985.581 558.477C985.979 559.08 986.496 559.585 987.132 559.994C987.78 560.392 988.473 560.727 989.212 561C989.95 561.261 990.661 561.477 991.342 561.648L994.751 562.534C995.865 562.807 997.007 563.176 998.178 563.642C999.348 564.108 1000.43 564.722 1001.43 565.483C1002.43 566.244 1003.24 567.188 1003.85 568.312C1004.48 569.438 1004.79 570.784 1004.79 572.352C1004.79 574.33 1004.28 576.085 1003.26 577.619C1002.25 579.153 1000.77 580.364 998.842 581.25C996.922 582.136 994.598 582.58 991.871 582.58C989.257 582.58 986.996 582.165 985.087 581.335C983.178 580.506 981.683 579.33 980.604 577.807C979.524 576.273 978.928 574.455 978.814 572.352H984.098C984.2 573.614 984.609 574.665 985.325 575.506C986.053 576.335 986.979 576.955 988.104 577.364C989.24 577.761 990.484 577.96 991.837 577.96C993.325 577.96 994.649 577.727 995.808 577.261C996.979 576.784 997.899 576.125 998.57 575.284C999.24 574.432 999.575 573.437 999.575 572.301C999.575 571.267 999.28 570.42 998.689 569.761C998.109 569.102 997.32 568.557 996.32 568.125C995.331 567.693 994.212 567.312 992.962 566.983L988.837 565.858C986.041 565.097 983.825 563.977 982.189 562.5C980.564 561.023 979.751 559.068 979.751 556.636C979.751 554.625 980.297 552.869 981.388 551.369C982.479 549.869 983.956 548.705 985.82 547.875C987.683 547.034 989.786 546.614 992.126 546.614C994.49 546.614 996.575 547.028 998.382 547.858C1000.2 548.688 1001.63 549.83 1002.68 551.284C1003.72 552.727 1004.27 554.386 1004.31 556.261H999.234ZM1022.9 555.818V559.909H1008.6V555.818H1022.9ZM1012.43 549.545H1017.53V574.312C1017.53 575.301 1017.68 576.045 1017.97 576.545C1018.27 577.034 1018.65 577.369 1019.11 577.551C1019.59 577.722 1020.11 577.807 1020.66 577.807C1021.07 577.807 1021.43 577.778 1021.74 577.722C1022.05 577.665 1022.28 577.619 1022.45 577.585L1023.38 581.795C1023.08 581.909 1022.66 582.023 1022.11 582.136C1021.57 582.261 1020.89 582.33 1020.07 582.341C1018.73 582.364 1017.48 582.125 1016.32 581.625C1015.16 581.125 1014.22 580.352 1013.51 579.307C1012.79 578.261 1012.43 576.949 1012.43 575.369V549.545ZM1036.15 582.58C1034.5 582.58 1033 582.273 1031.65 581.659C1030.31 581.034 1029.25 580.131 1028.47 578.949C1027.69 577.767 1027.31 576.318 1027.31 574.602C1027.31 573.125 1027.59 571.909 1028.16 570.955C1028.73 570 1029.5 569.244 1030.46 568.688C1031.43 568.131 1032.51 567.71 1033.7 567.426C1034.89 567.142 1036.11 566.926 1037.35 566.778C1038.92 566.597 1040.19 566.449 1041.17 566.335C1042.14 566.21 1042.85 566.011 1043.3 565.739C1043.74 565.466 1043.96 565.023 1043.96 564.409V564.29C1043.96 562.801 1043.54 561.648 1042.7 560.83C1041.87 560.011 1040.63 559.602 1038.98 559.602C1037.27 559.602 1035.92 559.983 1034.93 560.744C1033.95 561.494 1033.27 562.33 1032.9 563.25L1028.11 562.159C1028.68 560.568 1029.51 559.284 1030.6 558.307C1031.7 557.318 1032.97 556.602 1034.4 556.159C1035.83 555.705 1037.34 555.477 1038.92 555.477C1039.96 555.477 1041.07 555.602 1042.24 555.852C1043.42 556.091 1044.52 556.534 1045.55 557.182C1046.58 557.83 1047.43 558.756 1048.09 559.96C1048.75 561.153 1049.08 562.705 1049.08 564.614V582H1044.1V578.42H1043.89C1043.56 579.08 1043.07 579.727 1042.41 580.364C1041.75 581 1040.9 581.528 1039.87 581.949C1038.84 582.369 1037.6 582.58 1036.15 582.58ZM1037.26 578.489C1038.67 578.489 1039.88 578.21 1040.88 577.653C1041.89 577.097 1042.65 576.369 1043.18 575.472C1043.71 574.562 1043.98 573.591 1043.98 572.557V569.182C1043.8 569.364 1043.44 569.534 1042.92 569.693C1042.41 569.841 1041.83 569.972 1041.17 570.085C1040.51 570.187 1039.87 570.284 1039.24 570.375C1038.62 570.455 1038.09 570.523 1037.67 570.58C1036.68 570.705 1035.78 570.915 1034.96 571.21C1034.15 571.506 1033.51 571.932 1033.02 572.489C1032.54 573.034 1032.3 573.761 1032.3 574.67C1032.3 575.932 1032.77 576.886 1033.7 577.534C1034.63 578.17 1035.82 578.489 1037.26 578.489ZM1066.89 582.528C1064.36 582.528 1062.18 581.955 1060.35 580.807C1058.53 579.648 1057.13 578.051 1056.15 576.017C1055.18 573.983 1054.69 571.653 1054.69 569.028C1054.69 566.369 1055.19 564.023 1056.19 561.989C1057.19 559.943 1058.6 558.347 1060.41 557.199C1062.23 556.051 1064.38 555.477 1066.84 555.477C1068.83 555.477 1070.6 555.847 1072.16 556.585C1073.72 557.312 1074.97 558.335 1075.93 559.653C1076.89 560.972 1077.47 562.511 1077.65 564.273H1072.69C1072.41 563.045 1071.79 561.989 1070.81 561.102C1069.85 560.216 1068.55 559.773 1066.93 559.773C1065.51 559.773 1064.26 560.148 1063.19 560.898C1062.14 561.636 1061.31 562.693 1060.72 564.068C1060.13 565.432 1059.84 567.045 1059.84 568.909C1059.84 570.818 1060.13 572.466 1060.7 573.852C1061.28 575.239 1062.1 576.312 1063.16 577.074C1064.23 577.835 1065.48 578.216 1066.93 578.216C1067.89 578.216 1068.77 578.04 1069.55 577.688C1070.35 577.324 1071.01 576.807 1071.55 576.136C1072.09 575.466 1072.47 574.659 1072.69 573.716H1077.65C1077.47 575.409 1076.91 576.92 1075.99 578.25C1075.07 579.58 1073.84 580.625 1072.3 581.386C1070.76 582.148 1068.96 582.528 1066.89 582.528ZM1087.79 573.119L1087.75 566.898H1088.64L1099.07 555.818H1105.17L1093.27 568.432H1092.47L1087.79 573.119ZM1083.1 582V547.091H1088.19V582H1083.1ZM1099.63 582L1090.26 569.557L1093.77 565.994L1105.89 582H1099.63Z" fill="white"/>
<path d="M476.375 540.23C469.687 562.915 455.341 582.579 435.78 595.872C416.219 609.165 392.655 615.264 369.101 613.13C345.548 610.997 323.462 600.762 306.609 584.17C289.755 567.579 279.176 545.657 276.673 522.14C274.171 498.623 279.9 474.965 292.885 455.199C305.869 435.432 325.307 420.779 347.884 413.737C370.461 406.694 394.781 407.698 416.701 416.577C438.621 425.456 456.785 441.661 468.096 462.43L458.586 467.61C448.473 449.04 432.234 434.552 412.636 426.614C393.038 418.675 371.293 417.778 351.108 424.074C330.922 430.371 313.545 443.471 301.935 461.144C290.326 478.817 285.204 499.968 287.441 520.994C289.679 542.02 299.137 561.62 314.206 576.454C329.274 591.288 349.02 600.438 370.078 602.346C391.137 604.253 412.205 598.8 429.694 586.915C447.182 575.031 460.009 557.45 465.988 537.168L476.375 540.23Z" fill="white"/>
<path fill-rule="evenodd" clip-rule="evenodd" d="M422.839 442H360.446V460.949H365.8C367.837 461.112 369.497 461.475 370.777 462.039C372.832 462.959 374.237 464.417 374.994 466.412C375.75 468.407 376.183 470.945 376.293 474.025L376.761 487.168C376.854 489.769 377.473 492.248 378.62 494.606C379.766 496.964 381.793 499.017 384.699 500.764C386.297 501.742 388.257 502.589 390.579 503.304V509.082C388.403 509.941 386.576 510.898 385.098 511.955C382.324 513.939 380.45 516.147 379.474 518.581C378.498 521.015 378.057 523.532 378.149 526.133L378.618 539.275C378.728 542.356 378.476 544.918 377.864 546.961C377.251 549.005 375.953 550.559 373.969 551.624C373.049 552.109 371.912 552.5 370.558 552.794C369.793 552.529 369.071 552.202 368.39 551.813C366.246 550.588 364.561 548.771 363.335 546.364C362.153 543.913 361.497 540.959 361.366 537.501H329.001C328.957 547.13 330.948 555.029 334.975 561.201C339.045 567.372 344.494 571.924 351.321 574.856C358.192 577.788 365.83 579.254 374.233 579.254C383.73 579.254 392.089 577.46 399.311 573.871C406.576 570.282 412.266 565.249 416.38 558.772C420.494 552.25 422.573 544.635 422.616 535.926V460.949H422.839V442Z" fill="white"/>
<path d="M386.358 395.199C401.608 396.229 416.507 400.253 430.202 407.04C443.897 413.828 456.121 423.247 466.176 434.759C476.231 446.271 483.92 459.651 488.804 474.134C493.689 488.618 495.672 503.922 494.642 519.172C493.612 534.422 489.588 549.32 482.8 563.015C476.012 576.71 466.594 588.934 455.082 598.99C443.569 609.045 430.19 616.734 415.706 621.618C401.223 626.502 385.919 628.486 370.668 627.456L371.499 615.154C385.134 616.075 398.817 614.302 411.767 609.935C424.716 605.568 436.678 598.694 446.971 589.703C457.263 580.714 465.684 569.784 471.753 557.54C477.822 545.296 481.419 531.976 482.341 518.341C483.262 504.707 481.488 491.023 477.121 478.074C472.754 465.125 465.88 453.162 456.89 442.87C447.9 432.577 436.971 424.157 424.726 418.088C412.482 412.019 399.162 408.421 385.527 407.5L386.358 395.199Z" fill="white"/>
</svg>
